<svg width="123" height="151" viewBox="0 0 123 151" fill="none" xmlns="http://www.w3.org/2000/svg">
<g clip-path="url(#clip0)">
<path fill-rule="evenodd" clip-rule="evenodd" d="M0 0H122.7V99.3H0V0ZM8.8 8.8V90.6H114V8.8H8.8Z" fill="#122E49"/>
<path fill-rule="evenodd" clip-rule="evenodd" d="M32.4 22.3999H19.1V24.4999L42.2 76.8999H48.1L66.5 34.6999H76.8V76.2999C81.3 76.2999 85.9 76.2999 90.4 76.2999V34.6999H103.6C103.6 30.4999 103.6 26.4999 103.6 22.3999H57.7L45.4 52.8999H45L32.4 22.3999Z" fill="#122E49"/>
<path fill-rule="evenodd" clip-rule="evenodd" d="M5.9 125.5C6.8 125.5 7.6 125.3 8.4 125.1V122.1C7.7 122.4 7 122.6 6.3 122.6C4.6 122.6 3.5 121.5 3.5 119.2C3.5 116.9 4.7 115.7 6.4 115.7C7.2 115.7 7.8 115.8 8.3 116.1V113.1C7.5 112.8 6.8 112.6 5.9 112.6C2.8 112.6 0.300003 114.9 0.300003 119.2C0.200003 123.5 2.8 125.5 5.9 125.5ZM12.8 125.2H15.9V115.7H18.7V112.8H10V115.7H12.8V125.2ZM20.8 125.2H28.3V122.4H23.9V120.2H27.8V117.5H23.9V115.4H28.2V112.7H20.9V125.2H20.8ZM30.7 125.2H33.8V120.3H34.6L36.7 125.2H40.3L37.3 119L40.2 112.8H36.6L34.6 117.7H33.8V112.8H30.7V125.2ZM41.3 125.2C43.3 125.6 44.5 125.1 45.3 124C46.3 122.6 46.5 119.6 46.7 115.7H48.8V125.2H51.9V112.7H43.8C43.6 118.1 43.4 121.1 42.9 121.9C42.6 122.5 42.1 122.5 41.4 122.4V125.2H41.3ZM59.1 125.5C62.6 125.5 64.1 122.9 64.1 119C64.1 115.1 62.6 112.5 59.1 112.5C55.6 112.5 54.1 115.1 54.1 119C54.1 122.9 55.6 125.5 59.1 125.5ZM59.1 122.4C57.8 122.4 57.3 121.3 57.3 119C57.3 116.7 57.9 115.6 59.1 115.6C60.4 115.6 61 116.7 61 119C61 121.3 60.4 122.4 59.1 122.4ZM69.8 125.5C72 125.5 74.5 124.5 74.5 121.7C74.5 120 73.4 119 72.4 118.6C73.2 118.2 74 117.4 74 116C74 113.6 72.2 112.5 69.6 112.5C68.3 112.5 67.4 112.7 66.2 113.1V116C67.3 115.5 68.3 115.3 69.3 115.3C70.3 115.3 70.9 115.6 70.9 116.4C70.9 117.1 70.5 117.4 69.7 117.4H68V120.2H70C70.7 120.2 71.4 120.5 71.4 121.3C71.4 122.3 70.3 122.5 69.3 122.5C68.3 122.5 67.2 122.3 66.1 121.8V124.9C67.3 125.4 68.6 125.5 69.8 125.5ZM75.4 125.2H78.6L79.1 123.3H82.6L83.1 125.2H86.3L82.4 112.7H79.3L75.4 125.2ZM79.8 120.8L80.4 118.7C80.6 117.9 80.8 117 80.9 116C81 117 81.2 117.9 81.5 118.7L82.1 120.8H79.8ZM93.3 112.8H88.2V125.3H93.2C95.2 125.3 97.4 124.3 97.4 121.8C97.4 120.1 96.4 119.1 95.6 118.7C96.3 118.3 97 117.5 97 116C97 114 95.5 112.8 93.3 112.8ZM92.7 115.3C93.5 115.3 93.9 115.7 93.9 116.5C93.9 117.2 93.4 117.7 92.7 117.7H91.2V115.3H92.7ZM92.9 120.1C93.6 120.1 94.3 120.4 94.3 121.4C94.3 122.4 93.6 122.7 92.9 122.7H91.4V120.1H92.9ZM104.2 125.5C107.7 125.5 109.2 122.9 109.2 119C109.2 115.1 107.7 112.5 104.2 112.5C100.7 112.5 99.2 115.1 99.2 119C99.2 122.9 100.7 125.5 104.2 125.5ZM104.2 122.4C102.9 122.4 102.4 121.3 102.4 119C102.4 116.7 103 115.6 104.2 115.6C105.5 115.6 106.1 116.7 106.1 119C106.1 121.3 105.5 122.4 104.2 122.4ZM110.6 127.9H113.6V125.2H119.3V127.9H122.3V122.3H121V112.8H112.9C112.9 116.5 112.6 119.8 111.9 122.3H110.6V127.9ZM115.1 122.3C115.5 120.4 115.8 118.2 115.8 115.7H117.9V122.3H115.1ZM5.8 135.2H0.700003V147.7H5.7C7.7 147.7 9.9 146.7 9.9 144.2C9.9 142.5 8.9 141.5 8.1 141.1C8.8 140.7 9.5 139.9 9.5 138.4C9.4 136.4 8 135.2 5.8 135.2ZM5.2 137.7C6 137.7 6.4 138.1 6.4 138.9C6.4 139.6 5.9 140.1 5.2 140.1H3.8V137.7H5.2ZM5.4 142.5C6.1 142.5 6.8 142.8 6.8 143.8C6.8 144.8 6.1 145.1 5.4 145.1H3.8V142.5H5.4ZM12.3 147.6H19.8V144.8H15.4V142.6H19.3V139.9H15.4V137.8H19.7V135.1H12.4V147.6H12.3ZM21.7 150.3H24.7V147.6H30.4V150.3H33.4V144.7H32V135.2H23.9C23.9 138.9 23.6 142.2 22.9 144.7H21.6V150.3H21.7ZM26.2 144.7C26.6 142.8 26.9 140.6 26.9 138.1H29V144.7H26.2ZM35 147.6H38.2L38.7 145.7H42.2L42.7 147.6H46L42 135.2H38.9L35 147.6ZM39.3 143.3L39.9 141.2C40.1 140.4 40.3 139.5 40.4 138.5C40.5 139.5 40.7 140.4 41 141.2L41.6 143.3H39.3ZM49 147.6H52.1V138.1H54.9V135.2H46.1V138.1H49V147.6ZM61.8 135.2H57.2V147.7H60.3V143.9H61.8C64.2 143.9 66.1 142.5 66.1 139.6C66.1 136.5 64.2 135.2 61.8 135.2ZM61.5 138C62.5 138 63 138.6 63 139.5C63 140.5 62.5 141 61.5 141H60.3V138H61.5ZM66.6 147.6H69.8L70.3 145.7H73.8L74.3 147.6H77.5L73.6 135.1H70.5L66.6 147.6ZM70.9 143.3L71.5 141.2C71.7 140.4 71.9 139.5 72 138.5C72.1 139.5 72.3 140.4 72.6 141.2L73.2 143.3H70.9ZM88.6 135.2H85.5V140H82.6V135.2H79.5V147.7H82.6V142.9H85.5V147.7H88.6V135.2ZM95 147.9C97.2 147.9 99.7 146.9 99.7 144.1C99.7 142.4 98.6 141.4 97.6 141C98.4 140.6 99.2 139.8 99.2 138.4C99.2 136 97.4 134.9 94.8 134.9C93.5 134.9 92.6 135.1 91.4 135.5V138.4C92.5 137.9 93.5 137.7 94.5 137.7C95.5 137.7 96.1 138 96.1 138.8C96.1 139.5 95.7 139.8 94.9 139.8H93.2V142.6H95.2C95.9 142.6 96.6 142.9 96.6 143.7C96.6 144.7 95.6 144.9 94.5 144.9C93.5 144.9 92.4 144.7 91.3 144.2V147.3C92.6 147.8 93.8 147.9 95 147.9ZM111.4 147.6V135.1H108.6L104.9 142.1C105.1 141.1 105.2 140 105.2 138.8V135H102.1V147.5H104.9L108.6 140.5C108.4 141.5 108.3 142.6 108.3 143.8V147.6H111.4ZM116.6 147.6H119.7V138.1H122.5V135.2H113.7V138.1H116.5V147.6H116.6Z" fill="#122E49"/>
</g>
<defs>
<clipPath id="clip0">
<rect width="122.7" height="150.3" fill="#122E49"/>
</clipPath>
</defs>
</svg>
